<svg width="100%" height="100%" enable-background="new 0 0 40 40" version="1.1" viewBox="0 0 40 40" xml:space="preserve" xmlns="http://www.w3.org/2000/svg" fit="" preserveAspectRatio="xMidYMid meet" focusable="false">
<path d="M0,0h40v40H0V0z" fill="none"></path>
	<path d="m20.2 10.6-14.4-0.1c-0.5 0-0.9 0.4-0.9 1v13.7c0 0.5 0.4 1 0.9 1h0.9v0.8c0 0.1 0 0.1 0.1 0.2s0.1 0.1 0.2 0.1h0.8c0.1 0 0.3-0.1 0.3-0.2 0-0.199 0-0.699 0.1-0.896 0.4-1.2 1.4-2 3.3-2 0.6 0 1.1 0.197 1.6 0.5 0.7 0.5 1.4 1.602 1.5 2.5 0 0.102 0.101 0.197 0.301 0.197h0.8c0.1 0 0.3-0.101 0.3-0.301v-0.8l4.3 0.101c0.5 0 0.9-0.397 0.9-1v-13.801c-0.101-0.6-0.501-1-1.001-1z"></path>
	<ellipse cx="11.2" cy="27.5" rx="2.1" ry="2"></ellipse>
	<ellipse cx="28" cy="27.5" rx="2.1" ry="2"></ellipse>
	<path d="m34 20-1.7-0.6c-0.3-0.1-0.6-0.3-0.8-0.6l-1.5-5.1c-0.1-0.4-0.5-0.7-1-0.7h-5c-0.1 0-0.2 0-0.3 0.1h-0.1c-0.199 0-0.396 0.101-0.6 0.2l-0.1 0.1c-0.2 0.2-0.301 0.4-0.301 0.7v11.2c0 0.5 0.301 1 0.898 1h0.199v0.8c0 0.104 0 0.104 0.101 0.2 0.103 0.1 0.103 0.1 0.203 0.1h0.8c0.101 0 0.3-0.104 0.3-0.2 0-0.4 0.104-1.2 0.301-1.5 0.5-0.8 1.603-1.4 2.699-1.4 0.801 0 1.5 0.3 2.104 0.8 0.5 0.5 0.896 1.301 1 2.104 0 0.102 0.1 0.197 0.3 0.197h0.8c0.2 0 0.303-0.101 0.303-0.301v-0.8h1.393c0.6 0 1-0.399 1-1v-3.8c0-0.7-0.4-1.3-1-1.5zm-9-1v-4h3.3l1.2 4h-4.5z"></path>
</svg>